<svg xmlns="http://www.w3.org/2000/svg" width="91" height="82.638" viewBox="0 0 91 82.638">
  <g id="Raggruppa_344" data-name="Raggruppa 344" transform="translate(-836.55 -285.99)">
    <text id="Pick_Ban" data-name="Pick &amp; Ban" transform="translate(836.55 360.629)" fill="#23282d" font-size="20" font-family="TitilliumWeb-Regular, Titillium Web"><tspan x="0" y="0">Pick &amp; Ban</tspan></text>
    <g id="Raggruppa_52" data-name="Raggruppa 52" transform="translate(862.662 285.99)">
      <path id="Tracciato_17" data-name="Tracciato 17" d="M-1890.756,333.967l-13.562-7.939.331,5.954,8.6,5.072v17.862l-13.121,7.5s.551-38.37,0-38.811l-2.205-1.1L-1931,334.187v23.6l5.255,2.954.037-.028V337l12.79-7.5v16.208l-8.857,5.035-.178,12.119,4.954,2.785-.108-12.442,4.19-2.205v16.942l2.315,1.3,20.4-11.577Z" transform="translate(1931 -322.5)" fill="#23282d"/>
      <path id="Tracciato_18" data-name="Tracciato 18" d="M-1870,360.6v5.733l4.52-2.867v-5.6Z" transform="translate(1896.903 -342.274)" fill="#23282d"/>
      <path id="Tracciato_19" data-name="Tracciato 19" d="M-1909.25,357.354v5.733l4.521-2.867v-5.6Z" transform="translate(1918.842 -340.457)" fill="#23282d"/>
      <path id="Tracciato_20" data-name="Tracciato 20" d="M-1870,381.271V387l4.52-2.867v-5.6Z" transform="translate(1896.903 -353.826)" fill="#23282d"/>
    </g>
  </g>
</svg>
