<?xml version="1.0" encoding="utf-8"?>
<!-- Generator: Adobe Illustrator 26.0.3, SVG Export Plug-In . SVG Version: 6.00 Build 0)  -->
<svg version="1.1" id="Livello_1" xmlns="http://www.w3.org/2000/svg" xmlns:xlink="http://www.w3.org/1999/xlink" x="0px" y="0px"
	 viewBox="0 0 324 375" style="enable-background:new 0 0 324 375;" xml:space="preserve">
<style type="text/css">
	.st0{fill:#23282D;}
	.st1{fill:#FFFFFF;}
</style>
<g id="Raggruppa_309" transform="translate(-798.5 -234.5)">
	<g id="Poligono_2" transform="translate(1122.5 234.5) rotate(90)">
		<path class="st0" d="M272.6,320H102.4c-3.9,0-7.6-2.1-9.5-5.5l-85.1-147c-2-3.4-2-7.6,0-11l85.1-147c2-3.4,5.6-5.5,9.5-5.5h170.2
			c3.9,0,7.6,2.1,9.5,5.5l85.1,147c2,3.4,2,7.6,0,11l-85.1,147C280.2,317.9,276.5,320,272.6,320z"/>
		<path class="st1" d="M102.4,8c-2.5,0-4.8,1.3-6.1,3.5l-85.1,147c-1.3,2.2-1.3,4.8,0,7l85.1,147c1.2,2.2,3.6,3.5,6.1,3.5h170.2
			c2.5,0,4.8-1.3,6.1-3.5l85.1-147c1.3-2.2,1.3-4.8,0-7l-85.1-147c-1.2-2.2-3.6-3.5-6.1-3.5H102.4 M102.4,0h170.2
			c5.4,0,10.3,2.9,13,7.5l85.1,147c2.7,4.6,2.7,10.4,0,15l-85.1,147c-2.7,4.6-7.6,7.5-13,7.5H102.4c-5.4,0-10.3-2.9-13-7.5
			l-85.1-147c-2.7-4.6-2.7-10.4,0-15l85.1-147C92.1,2.9,97,0,102.4,0z"/>
	</g>
	<path class="st1" d="M884.5,466.7h-7v9.3h-3.1v-27.7h10.1c3,0,5.2,0.7,6.7,2.2c1.4,1.5,2.2,3.7,2.2,6.7
		C893.4,463.5,890.4,466.7,884.5,466.7z M877.5,464h7c3.8,0,5.7-2.2,5.7-6.7c0-2.1-0.5-3.7-1.4-4.7c-0.9-1-2.4-1.5-4.4-1.5h-7V464z"
		/>
	<path class="st1" d="M897.6,451.5V448h3v3.5H897.6z M897.6,476v-20h3v20H897.6z"/>
	<path class="st1" d="M913.8,455.6c0.9,0,2.4,0.2,4.5,0.5l1,0.1l-0.1,2.4c-2.1-0.2-3.7-0.4-4.7-0.4c-2.3,0-3.8,0.5-4.6,1.6
		s-1.2,3.1-1.2,6s0.4,5,1.1,6.1c0.8,1.1,2.3,1.7,4.7,1.7l4.7-0.4l0.1,2.5c-2.5,0.4-4.3,0.6-5.6,0.6c-3.1,0-5.3-0.8-6.5-2.4
		s-1.8-4.3-1.8-8.1c0-3.8,0.6-6.5,1.9-8C908.7,456.4,910.9,455.6,913.8,455.6z"/>
	<path class="st1" d="M926.8,476h-3v-28.7h3v17l3.1-0.2l5.7-8.1h3.4l-6.5,9.2l6.8,10.8h-3.4l-6-9.3l-3.2,0.1V476z"/>
	<path class="st1" d="M956.3,449.6c1.2-1.1,3-1.6,5.2-1.6c2.2,0,3.9,0.5,5.1,1.6c1.2,1.1,1.7,2.5,1.7,4.4c0,1.9-0.5,3.4-1.4,4.4
		c-0.9,1.1-2.5,2.1-4.8,3.2l6.1,6c0.6-1.7,1-3.9,1.1-6.5l2.9,0c-0.3,3.3-1,6.1-1.8,8.3l5.2,4.9l-1.8,2l-4.8-4.5
		c-1.8,3-4.6,4.6-8.4,4.6s-6.3-0.7-7.8-2.2c-1.5-1.4-2.2-3.4-2.2-6c0-2.5,0.5-4.4,1.5-5.6c1-1.2,2.6-2.1,4.7-2.9
		c-0.9-1.1-1.5-2-1.8-2.8c-0.3-0.8-0.4-1.9-0.4-3.1C954.5,452.1,955.1,450.6,956.3,449.6z M960.2,473.7c3.3,0,5.5-1.2,6.8-3.6
		l-8.4-8.4c-1.8,0.6-3,1.3-3.8,2.2s-1.1,2.2-1.1,4.1C953.6,471.8,955.8,473.7,960.2,473.7z M957.5,454.3c0,1.6,0.6,3.1,1.8,4.4
		l1.2,1.1c1.8-0.8,3.1-1.6,3.8-2.4c0.7-0.8,1.1-1.8,1.1-3.2c0-2.5-1.3-3.7-3.9-3.7C958.8,450.6,957.5,451.8,957.5,454.3z"/>
	<path class="st1" d="M988.6,448.3h10c2.7,0,4.8,0.6,6.2,1.7c1.4,1.1,2.1,2.9,2.1,5.3c0,1.7-0.3,3.1-0.9,4.1c-0.6,1-1.5,1.7-2.7,2.3
		c2.9,1,4.4,3.2,4.4,6.5c0,2.8-0.7,4.8-2.2,6c-1.5,1.2-3.6,1.8-6.4,1.8h-10.6V448.3z M998.5,451h-6.8v9.6h7.1c1.7,0,3-0.4,3.7-1.2
		c0.8-0.8,1.2-2,1.2-3.7c0-1.6-0.4-2.8-1.3-3.6C1001.6,451.4,1000.3,451,998.5,451z M998.8,463.3h-7.2v10h7.4c1.8,0,3.2-0.4,4.1-1.1
		c0.9-0.8,1.4-2.1,1.4-4c0-1-0.2-1.9-0.6-2.6c-0.4-0.7-0.9-1.2-1.5-1.5C1001.3,463.5,1000.1,463.3,998.8,463.3z"/>
	<path class="st1" d="M1026.8,462v10.2c0.1,1,0.9,1.6,2.3,1.8l-0.1,2.4c-2.1,0-3.7-0.5-4.8-1.6c-2.4,1.1-4.8,1.6-7.2,1.6
		c-1.8,0-3.2-0.5-4.2-1.6s-1.4-2.5-1.4-4.5s0.5-3.4,1.5-4.3c1-0.9,2.5-1.5,4.6-1.7l6.3-0.6V462c0-1.4-0.3-2.3-0.9-2.9
		c-0.6-0.6-1.4-0.9-2.4-0.9c-2.1,0-4.3,0.1-6.6,0.4l-1.2,0.1l-0.1-2.3c2.9-0.6,5.5-0.9,7.8-0.9c2.3,0,3.9,0.5,4.9,1.6
		C1026.3,458.2,1026.8,459.8,1026.8,462z M1014.5,470.2c0,2.5,1,3.7,3,3.7c1.8,0,3.6-0.3,5.4-0.9l0.9-0.3V466l-5.9,0.6
		c-1.2,0.1-2.1,0.5-2.6,1C1014.8,468.2,1014.5,469.1,1014.5,470.2z"/>
	<path class="st1" d="M1035.8,476h-3v-20h3v1.4c2.2-1.2,4.2-1.8,6.2-1.8c2.7,0,4.5,0.7,5.4,2.2c0.9,1.4,1.4,4,1.4,7.7V476h-3v-10.5
		c0-2.8-0.3-4.7-0.8-5.7s-1.7-1.5-3.5-1.5c-0.9,0-1.8,0.1-2.7,0.4c-0.9,0.3-1.7,0.5-2.2,0.7l-0.8,0.4V476z"/>
	<g id="Raggruppa_52" transform="translate(920.754 332.609)">
		<path id="Tracciato_17" class="st1" d="M76.7,21.8L50.8,6.7l0.6,11.3l16.4,9.7v34l-25,14.3c0,0,1.1-73.1,0-73.9L38.7,0L0,22.3v45
			l10,5.6l0.1-0.1V27.6l24.4-14.3v30.9l-16.9,9.6l-0.3,23.1l9.4,5.3l-0.2-23.7l8-4.2v32.3l4.4,2.5L77.7,67L76.7,21.8z"/>
		<path id="Tracciato_18" class="st1" d="M51.3,34.9v10.9l8.6-5.5V29.7L51.3,34.9z"/>
		<path id="Tracciato_19" class="st1" d="M18.3,32.2v10.9l8.6-5.5V27L18.3,32.2z"/>
		<path id="Tracciato_20" class="st1" d="M51.3,52.3v10.9l8.6-5.5V47.1L51.3,52.3z"/>
	</g>
</g>
</svg>
