<svg xmlns="http://www.w3.org/2000/svg" width="324" height="375" viewBox="0 0 324 375">
  <g id="Raggruppa_309" data-name="Raggruppa 309" transform="translate(-798.5 -234.5)">
    <g id="Poligono_2" data-name="Poligono 2" transform="translate(1122.5 234.5) rotate(90)" fill="#23282d">
      <path d="M 272.5999145507813 320 L 102.4001007080078 320 C 98.48735046386719 320 94.83924865722656 317.896240234375 92.87940216064453 314.5097045898438 L 7.80994987487793 167.5096435546875 C 5.843249797821045 164.1111450195313 5.843249797821045 159.8887939453125 7.80994987487793 156.4902954101563 L 92.87944793701172 9.490300178527832 C 94.83930206298828 6.103750228881836 98.48739624023438 4 102.400146484375 4 L 272.5999145507813 4 C 276.5126647949219 4 280.1607360839844 6.103799819946289 282.12060546875 9.490349769592285 L 367.1900634765625 156.4902954101563 C 369.15673828125 159.8887939453125 369.15673828125 164.1111450195313 367.1900634765625 167.5096435546875 L 282.12060546875 314.5097045898438 C 280.1607360839844 317.8962097167969 276.5126647949219 320 272.5999145507813 320 Z" stroke="none"/>
      <path d="M 102.4001770019531 8 C 99.91021728515625 8 97.588623046875 9.338775634765625 96.34149169921875 11.49383544921875 L 11.27206420898438 158.4937744140625 C 10.0205078125 160.6564483642578 10.0205078125 163.343505859375 11.27206420898438 165.5061645507813 L 96.3414306640625 312.506103515625 C 97.588623046875 314.6612243652344 99.91015625 316 102.4000549316406 316 L 272.5998840332031 316 C 275.08984375 316 277.4113159179688 314.6612243652344 278.658447265625 312.5061645507813 L 363.7279357910156 165.506103515625 C 364.9794921875 163.3434448242188 364.9794921875 160.6565551757813 363.7278747558594 158.4938354492188 L 278.658447265625 11.49383544921875 C 277.4113159179688 9.338775634765625 275.08984375 8 272.5998840332031 8 L 102.4001770019531 8 M 102.4001770019531 0 L 272.5998840332031 0 C 277.9534301757813 0 282.9011840820313 2.85321044921875 285.5826110839844 7.486846923828125 L 370.6520690917969 154.4868316650391 C 373.3417358398438 159.1345062255859 373.3417358398438 164.8654479980469 370.6520690917969 169.5131683349609 L 285.5826110839844 316.5131530761719 C 282.9011840820313 321.1467895507813 277.9534301757813 324 272.5998840332031 324 L 102.4000549316406 324 C 97.04656982421875 324 92.09884643554688 321.1467895507813 89.41732788085938 316.5131530761719 L 4.347900390625 169.5131683349609 C 1.65826416015625 164.8654479980469 1.65826416015625 159.1345062255859 4.347900390625 154.4867706298828 L 89.41732788085938 7.486846923828125 C 92.09884643554688 2.85321044921875 97.04656982421875 0 102.4001770019531 0 Z" stroke="none" fill="#fff"/>
    </g>
    <text id="Pick_Ban" data-name="Pick &amp; Ban" transform="translate(871 476)" fill="#fff" font-size="40" font-family="TitilliumWeb-Regular, Titillium Web"><tspan x="0" y="0">Pick &amp; Ban</tspan></text>
    <g id="Raggruppa_52" data-name="Raggruppa 52" transform="translate(920.754 332.609)">
      <path id="Tracciato_17" data-name="Tracciato 17" d="M-1854.32,344.349l-25.84-15.126.63,11.345,16.386,9.664v34.034l-25,14.286s1.051-73.109,0-73.949l-4.2-2.1L-1931,344.769v44.958l10.013,5.629.07-.054V350.134l24.37-14.286v30.882l-16.876,9.594-.34,23.091,9.439,5.307-.206-23.707,7.983-4.2V409.1l4.412,2.48,38.866-22.059Z" transform="translate(1931 -322.5)" fill="#fff"/>
      <path id="Tracciato_18" data-name="Tracciato 18" d="M-1870,363.075V374l8.613-5.462V357.875Z" transform="translate(1921.26 -328.148)" fill="#fff"/>
      <path id="Tracciato_19" data-name="Tracciato 19" d="M-1909.25,359.825v10.924l8.613-5.462V354.625Z" transform="translate(1927.527 -327.629)" fill="#fff"/>
      <path id="Tracciato_20" data-name="Tracciato 20" d="M-1870,383.741v10.924l8.613-5.462V378.542Z" transform="translate(1921.26 -331.448)" fill="#fff"/>
    </g>
  </g>
</svg>
