<svg xmlns="http://www.w3.org/2000/svg" width="49.659" height="56.906" viewBox="0 0 49.659 56.906"><defs><style>.a{fill:#fff;}</style></defs><g transform="translate(1931 -322.5)"><path class="a" d="M-1882.012,336.458l-16.508-9.663.4,7.248,10.469,6.174v21.743l-15.971,9.126s.671-46.706,0-47.243l-2.684-1.342-24.7,14.227v28.722l6.4,3.6.045-.034V340.154l15.569-9.127v19.729l-10.782,6.129-.217,14.752,6.03,3.39-.132-15.145,5.1-2.684v20.623l2.819,1.584,24.829-14.092Z"/><path class="a" d="M-1870,361.2v6.979l5.5-3.49v-6.811Z" transform="translate(-28.252 -16.384)"/><path class="a" d="M-1909.25,357.947v6.979l5.5-3.49v-6.811Z" transform="translate(-10.073 -14.879)"/><path class="a" d="M-1870,381.863v6.979l5.5-3.49v-6.811Z" transform="translate(-28.252 -25.955)"/></g></svg>