<?xml version="1.0" encoding="utf-8"?>
<!-- Generator: Adobe Illustrator 26.0.3, SVG Export Plug-In . SVG Version: 6.00 Build 0)  -->
<svg version="1.1" id="Livello_1" xmlns="http://www.w3.org/2000/svg" xmlns:xlink="http://www.w3.org/1999/xlink" x="0px" y="0px"
	 viewBox="0 0 91 82.6" style="enable-background:new 0 0 91 82.6;" xml:space="preserve">
<style type="text/css">
	.st0{enable-background:new    ;}
	.st1{fill:#23282D;}
</style>
<g id="Raggruppa_344" transform="translate(-836.55 -285.99)">
	<g class="st0">
		<path class="st1" d="M843.3,356h-3.5v4.7h-1.5v-13.8h5.1c1.5,0,2.6,0.4,3.3,1.1c0.7,0.7,1.1,1.9,1.1,3.4
			C847.7,354.4,846.3,356,843.3,356z M839.8,354.6h3.5c1.9,0,2.9-1.1,2.9-3.4c0-1.1-0.2-1.9-0.7-2.4s-1.2-0.8-2.2-0.8h-3.5V354.6z"
			/>
		<path class="st1" d="M849.8,348.4v-1.7h1.5v1.7H849.8z M849.8,360.6v-10h1.5v10H849.8z"/>
		<path class="st1" d="M858,350.4c0.4,0,1.2,0.1,2.2,0.2l0.5,0.1l-0.1,1.2c-1.1-0.1-1.9-0.2-2.4-0.2c-1.1,0-1.9,0.3-2.3,0.8
			s-0.6,1.5-0.6,3s0.2,2.5,0.6,3s1.2,0.9,2.4,0.9l2.4-0.2l0.1,1.2c-1.2,0.2-2.2,0.3-2.8,0.3c-1.6,0-2.6-0.4-3.2-1.2
			c-0.6-0.8-0.9-2.2-0.9-4c0-1.9,0.3-3.2,1-4S856.5,350.4,858,350.4z"/>
		<path class="st1" d="M864.4,360.6h-1.5v-14.4h1.5v8.5l1.6-0.1l2.9-4h1.7l-3.3,4.6l3.4,5.4H869l-3-4.6l-1.6,0.1V360.6z"/>
		<path class="st1" d="M879.2,347.4c0.6-0.5,1.5-0.8,2.6-0.8c1.1,0,2,0.3,2.5,0.8s0.9,1.3,0.9,2.2c0,0.9-0.2,1.7-0.7,2.2
			s-1.3,1.1-2.4,1.6l3,3c0.3-0.9,0.5-1.9,0.6-3.2l1.5,0c-0.2,1.7-0.5,3.1-0.9,4.2l2.6,2.4l-0.9,1l-2.4-2.3c-0.9,1.5-2.3,2.3-4.2,2.3
			s-3.2-0.4-3.9-1.1c-0.7-0.7-1.1-1.7-1.1-3s0.2-2.2,0.7-2.8c0.5-0.6,1.3-1.1,2.4-1.4c-0.5-0.5-0.8-1-0.9-1.4
			c-0.1-0.4-0.2-0.9-0.2-1.6C878.3,348.7,878.6,347.9,879.2,347.4z M881.1,359.5c1.6,0,2.8-0.6,3.4-1.8l-4.2-4.2
			c-0.9,0.3-1.5,0.6-1.9,1.1c-0.4,0.4-0.6,1.1-0.6,2C877.8,358.5,878.9,359.5,881.1,359.5z M879.8,349.8c0,0.8,0.3,1.5,0.9,2.2
			l0.6,0.6c0.9-0.4,1.6-0.8,1.9-1.2c0.4-0.4,0.5-0.9,0.5-1.6c0-1.2-0.7-1.8-2-1.8C880.4,347.9,879.8,348.5,879.8,349.8z"/>
		<path class="st1" d="M895.3,346.8h5c1.4,0,2.4,0.3,3.1,0.8c0.7,0.6,1,1.5,1,2.7c0,0.9-0.1,1.5-0.5,2c-0.3,0.5-0.7,0.9-1.3,1.2
			c1.5,0.5,2.2,1.6,2.2,3.3c0,1.4-0.4,2.4-1.1,3c-0.7,0.6-1.8,0.9-3.2,0.9h-5.3V346.8z M900.3,348.1h-3.4v4.8h3.6
			c0.9,0,1.5-0.2,1.9-0.6c0.4-0.4,0.6-1,0.6-1.8c0-0.8-0.2-1.4-0.6-1.8C901.9,348.3,901.2,348.1,900.3,348.1z M900.5,354.3h-3.6v5
			h3.7c0.9,0,1.6-0.2,2.1-0.6c0.5-0.4,0.7-1.1,0.7-2c0-0.5-0.1-0.9-0.3-1.3c-0.2-0.3-0.5-0.6-0.8-0.7
			C901.7,354.4,901.1,354.3,900.5,354.3z"/>
		<path class="st1" d="M914.5,353.6v5.1c0,0.5,0.4,0.8,1.2,0.9l-0.1,1.2c-1.1,0-1.8-0.3-2.4-0.8c-1.2,0.5-2.4,0.8-3.6,0.8
			c-0.9,0-1.6-0.3-2.1-0.8c-0.5-0.5-0.7-1.3-0.7-2.2c0-1,0.2-1.7,0.7-2.1c0.5-0.5,1.3-0.7,2.3-0.9l3.1-0.3v-0.9
			c0-0.7-0.1-1.2-0.4-1.5c-0.3-0.3-0.7-0.4-1.2-0.4c-1.1,0-2.2,0.1-3.3,0.2l-0.6,0.1l-0.1-1.1c1.5-0.3,2.8-0.4,3.9-0.4
			c1.1,0,2,0.3,2.5,0.8C914.2,351.7,914.5,352.5,914.5,353.6z M908.3,357.7c0,1.2,0.5,1.8,1.5,1.8c0.9,0,1.8-0.2,2.7-0.5l0.5-0.2
			v-3.3l-3,0.3c-0.6,0.1-1,0.2-1.3,0.5S908.3,357.2,908.3,357.7z"/>
		<path class="st1" d="M918.9,360.6h-1.5v-10h1.5v0.7c1.1-0.6,2.1-0.9,3.1-0.9c1.3,0,2.2,0.4,2.7,1.1c0.5,0.7,0.7,2,0.7,3.8v5.3
			h-1.5v-5.2c0-1.4-0.1-2.3-0.4-2.8s-0.9-0.8-1.8-0.8c-0.4,0-0.9,0.1-1.3,0.2c-0.5,0.1-0.8,0.2-1.1,0.4l-0.4,0.2V360.6z"/>
	</g>
	<g id="Raggruppa_52" transform="translate(862.662 285.99)">
		<path id="Tracciato_17" class="st1" d="M40.2,11.5L26.7,3.5l0.3,6l8.6,5.1v17.9l-13.1,7.5c0,0,0.6-38.4,0-38.8L20.3,0L0,11.7v23.6
			l5.3,3l0,0V14.5L18.1,7v16.2l-8.9,5L9,40.4l5,2.8l-0.1-12.4l4.2-2.2v16.9l2.3,1.3l20.4-11.6L40.2,11.5z"/>
		<path id="Tracciato_18" class="st1" d="M26.9,18.3v5.7l4.5-2.9v-5.6L26.9,18.3z"/>
		<path id="Tracciato_19" class="st1" d="M9.6,16.9v5.7l4.5-2.9v-5.6L9.6,16.9z"/>
		<path id="Tracciato_20" class="st1" d="M26.9,27.4v5.7l4.5-2.9v-5.6L26.9,27.4z"/>
	</g>
</g>
</svg>
